<mxfile host="app.diagrams.net" modified="2023-07-29T03:32:27.399Z" agent="Mozilla/5.0 (Windows NT 10.0; Win64; x64) AppleWebKit/537.36 (KHTML, like Gecko) Chrome/115.0.0.0 Safari/537.36" version="21.6.5" etag="wQ64p7CdqLt0RFme0LFQ" type="github">
  <diagram name="第 1 页" id="e1ImgbCIdk8GMLp1N5rD">
    <mxGraphModel>
      <root>
        <mxCell id="0" />
        <mxCell id="1" parent="0" />
      </root>
    </mxGraphModel>
  </diagram>
</mxfile>
